<svg width="135" height="36" viewBox="0 0 135 36" fill="none" xmlns="http://www.w3.org/2000/svg">
<path d="M18 0C8.05758 0 0 8.05758 0 18C0 27.9424 8.05758 36 18 36C27.9424 36 36 27.9424 36 18C36 8.05758 27.9424 0 18 0ZM13.1431 29.4208H6.56393V22.8417H13.1431V29.4208ZM21.2769 29.4208H14.6977V22.8417H21.2769V29.4208ZM21.2769 21.2921H14.6977V14.713H21.2769V21.2921ZM21.2769 13.1634H14.6977V6.58425H21.2769V13.1634ZM29.4107 13.1583H22.8315V6.57917H29.4107V13.1583Z" fill="#000000"/>
<path d="M59.7221 21.5618C59.7221 24.5695 57.4461 26.8607 53.0769 26.8607C49.3682 26.8607 46.4266 24.9302 46.2793 21.4755H49.2056C49.3936 23.3552 50.9533 24.3713 53.209 24.3713C55.4647 24.3713 56.8212 23.1977 56.8212 21.6889C56.8212 20.3324 55.8051 19.5195 53.2192 18.7574L51.6341 18.3104C48.6468 17.4518 46.8026 16.1309 46.8026 13.4331C46.8026 10.4052 49.5867 8.42383 53.2344 8.42383C56.8822 8.42383 59.4478 10.5068 59.5646 13.5297H56.6942C56.4605 11.9039 55.1853 10.9082 53.143 10.9082C51.1006 10.9082 49.7188 11.9141 49.7188 13.4077C49.7188 14.7033 50.8314 15.4552 53.0973 16.1105L54.4791 16.5017C57.9237 17.5077 59.7221 18.9403 59.7221 21.5669V21.5618ZM65.3767 22.7456V15.8565H67.8254V13.3061H65.3767V10.3646H62.6129V13.3061H60.4232V15.8565H62.6129V22.7761C62.6129 25.7786 64.4927 26.6474 66.2708 26.7388C67.1599 26.7845 68.0744 26.6626 68.0744 26.6626V24.3866C67.7645 24.4018 67.5663 24.4272 67.1853 24.4272C66.5147 24.4272 65.3716 24.3053 65.3716 22.7456H65.3767ZM95.1328 20.2409C95.1328 24.3561 92.2725 26.8455 88.9398 26.8455C87.5426 26.8455 86.0693 26.3527 85.0735 25.4535V31.4128H82.3098V13.7227H85.0735V14.9471C86.0693 14.0479 87.5426 13.5551 88.9398 13.5551C92.115 13.5551 95.1328 16.1359 95.1328 20.2409ZM92.3894 20.2003C92.3894 17.467 90.8348 15.9683 88.9194 15.9683C87.0041 15.9683 85.0685 17.467 85.0685 20.2003C85.0685 22.9336 87.0041 24.4323 88.9194 24.4323C90.8348 24.4323 92.3894 22.9336 92.3894 20.2003Z" fill="#000000"/>
<path d="M85.0978 31.4371H82.2832V13.6962H85.0978V14.8901C86.0681 14.0366 87.4957 13.5285 88.9386 13.5285C90.5288 13.5285 92.0986 14.189 93.2468 15.3422C94.4813 16.5819 95.1621 18.3244 95.1621 20.2448C95.1621 22.1653 94.522 23.8875 93.3078 25.1068C92.1748 26.2448 90.6253 26.8748 88.9437 26.8748C87.5008 26.8748 86.0732 26.3668 85.1029 25.5133V31.4371H85.0978ZM82.3391 31.3863H85.0521V25.3964L85.0927 25.4371C86.0529 26.3058 87.4907 26.824 88.9437 26.824C92.0072 26.824 95.1113 24.5632 95.1113 20.2448C95.1113 15.9265 91.9767 13.5844 88.9437 13.5844C87.4958 13.5844 86.058 14.1026 85.0927 14.9714L85.0521 15.012V13.752H82.3391V31.3913V31.3863ZM53.0758 26.8901C51.1909 26.8901 49.5449 26.4023 48.3256 25.4879C47.0402 24.5226 46.3239 23.1356 46.2578 21.4794V21.454H49.2299V21.4794C49.4128 23.2779 50.8963 24.3498 53.2129 24.3498C55.3264 24.3498 56.7997 23.2576 56.7997 21.6928C56.7997 20.3617 55.7938 19.5488 53.2129 18.7868L51.6278 18.3397C49.9919 17.8723 48.8641 17.3134 48.0817 16.5869C47.2028 15.7741 46.776 14.7427 46.776 13.4371C46.776 11.9637 47.4162 10.6987 48.6355 9.77914C49.804 8.89007 51.4348 8.40234 53.2333 8.40234C55.0317 8.40234 56.5965 8.89515 57.7447 9.82487C58.8929 10.7546 59.533 12.0349 59.5889 13.5336V13.559H56.6676V13.5387C56.4289 11.8875 55.1435 10.9375 53.1418 10.9375C51.1401 10.9375 49.743 11.9078 49.743 13.4117C49.743 14.6208 50.7184 15.3981 53.1062 16.089L54.4881 16.4802C58.1765 17.5573 59.7515 19.0814 59.7515 21.5658C59.7515 23.1102 59.1672 24.421 58.0597 25.3609C56.8861 26.3617 55.1638 26.8901 53.0808 26.8901H53.0758ZM46.3086 21.4997C46.4559 24.741 49.1079 26.8342 53.0758 26.8342C57.0436 26.8342 59.6956 24.8122 59.6956 21.5607C59.6956 19.0967 58.1308 17.5929 54.4729 16.5209L53.091 16.1297C50.6778 15.4286 49.6922 14.6411 49.6922 13.4015C49.6922 11.8672 51.0487 10.8765 53.1418 10.8765C55.2349 10.8765 56.4644 11.8316 56.7134 13.498H59.5381C59.406 10.4752 56.8759 8.44299 53.2333 8.44299C49.5906 8.44299 46.8268 10.4955 46.8268 13.4269C46.8268 15.8604 48.2646 17.3134 51.6431 18.2838L53.2282 18.7309C55.8344 19.498 56.8505 20.3261 56.8505 21.6826C56.8505 23.2779 55.3569 24.3905 53.2129 24.3905C50.881 24.3905 49.3772 23.3084 49.1841 21.4946H46.3086V21.4997ZM66.6812 26.7732C66.544 26.7732 66.4068 26.7732 66.2697 26.7631C65.2231 26.7122 64.3797 26.4074 63.7599 25.8689C62.9826 25.1932 62.5863 24.1517 62.5863 22.7749V15.8808H60.3967V13.2796H62.5863V10.338H65.4009V13.2796H67.8497V15.8808H65.4009V22.7444C65.4009 24.2279 66.4221 24.4006 67.1892 24.4006C67.4534 24.4006 67.6363 24.3905 67.8243 24.3752C67.9056 24.3702 67.9869 24.3651 68.0732 24.36H68.0986V26.6818H68.0783C68.0783 26.6818 67.4128 26.7732 66.6812 26.7732ZM60.4526 15.8299H62.6422V22.7749C62.6422 25.874 64.6185 26.6259 66.2747 26.7122C67.0775 26.7529 67.9056 26.6564 68.0529 26.636V24.4108C67.9716 24.4108 67.9005 24.421 67.8294 24.4261C67.6363 24.4413 67.4585 24.4515 67.1892 24.4515C66.7371 24.4515 65.3501 24.4515 65.3501 22.7444V15.8299H67.7989V13.3304H65.3501V10.3888H62.6372V13.3304H60.4475V15.8299H60.4526ZM88.9183 24.4616C87.9327 24.4616 86.9623 24.0603 86.2561 23.3642C85.4636 22.5768 85.0419 21.4845 85.0419 20.2042C85.0419 18.9239 85.4636 17.8316 86.2561 17.0442C86.9623 16.3482 87.9327 15.9468 88.9183 15.9468C91.0114 15.9468 92.4136 17.6589 92.4136 20.2042C92.4136 22.7495 91.0114 24.4616 88.9183 24.4616ZM88.9183 15.9925C87.0639 15.9925 85.0927 17.4658 85.0927 20.1991C85.0927 22.9324 87.0639 24.4057 88.9183 24.4057C90.9759 24.4057 92.3628 22.7139 92.3628 20.1991C92.3628 17.6843 90.9809 15.9925 88.9183 15.9925Z" fill="#000000"/>
<path d="M77.6471 22.7515C77.0883 23.8996 76.0823 24.4229 74.7055 24.4636C72.7648 24.4128 71.5557 23.2747 71.3067 21.0902H80.8071C80.8325 20.8006 80.8529 20.5008 80.8529 20.1909C80.8529 15.8827 78.1043 13.5508 74.7106 13.5508C71.3169 13.5508 68.5684 15.8776 68.5684 20.1909C68.5684 24.5042 71.0781 26.826 74.7106 26.826C77.7182 26.826 79.6082 25.4136 80.4718 22.7515H77.6471ZM74.7055 15.8929C76.5954 15.9437 77.7894 16.848 78.084 18.931H71.327C71.6217 16.848 72.8156 15.9437 74.7055 15.8929Z" fill="#000000"/>
<path d="M74.7048 26.8533C72.8758 26.8533 71.3364 26.2589 70.2543 25.1361C69.1315 23.9727 68.5371 22.2606 68.5371 20.1929C68.5371 18.1251 69.162 16.4334 70.3458 15.2395C71.438 14.137 72.9876 13.5273 74.7098 13.5273C76.4321 13.5273 77.9766 14.137 79.0739 15.2395C80.2577 16.4334 80.8826 18.1455 80.8826 20.1929C80.8826 20.4875 80.8673 20.7924 80.8369 21.0921V21.1175H71.3415C71.5955 23.2361 72.759 24.3893 74.7098 24.4401C76.1375 24.3995 77.0875 23.8457 77.626 22.7433V22.728H80.5066L80.4965 22.7636C79.6125 25.4765 77.6667 26.8533 74.7098 26.8533H74.7048ZM74.7048 13.5781C71.0468 13.5781 68.5879 16.2352 68.5879 20.1929C68.5879 24.1505 70.93 26.8025 74.7048 26.8025C77.626 26.8025 79.5515 25.4511 80.4304 22.7788H77.6565C77.1078 23.8914 76.1425 24.4503 74.6997 24.4909C72.7082 24.435 71.5244 23.2615 71.2755 21.0921V21.0616H80.7759C80.8013 20.767 80.8165 20.4723 80.8165 20.1878C80.8165 16.2352 78.3576 13.5731 74.6997 13.5731L74.7048 13.5781ZM78.1137 18.9583H71.3009V18.9279C71.5854 16.9262 72.698 15.9253 74.7048 15.8694C76.7115 15.9253 77.8242 16.9262 78.1087 18.9279V18.9583H78.1137ZM71.3568 18.9075H78.0528C77.7683 16.9516 76.6709 15.9761 74.7048 15.9202C72.7386 15.9761 71.6413 16.9516 71.3568 18.9075Z" fill="#000000"/>
<path d="M99.7517 11.8513V16.8454H107.271V19.6498H99.7517V26.8894H96.8203V9.04688H107.271V11.8513H99.7517Z" fill="#000000"/>
<path d="M120.513 14.1426V26.8843H117.759V25.9495C117.119 26.7726 115.854 27.3365 113.807 27.2146C111.759 27.0926 108.914 25.5024 108.914 21.9665V14.1426H111.668V21.687C111.668 23.6227 112.968 24.6438 114.523 24.6438C116.077 24.6438 117.759 23.5719 117.759 20.9758V14.1426H120.513Z" fill="#000000"/>
<path d="M122.703 26.8932V14.1515H125.457V15.0863C126.097 14.2633 127.362 13.6993 129.409 13.8213C131.457 13.9432 134.302 15.5334 134.302 19.0694V26.8932H131.548V19.3488C131.548 17.4131 130.248 16.392 128.693 16.392C127.138 16.392 125.457 17.4639 125.457 20.06V26.8932H122.703Z" fill="#000000"/>
</svg>
